<?xml version="1.0" encoding="UTF-8"?>
<!DOCTYPE svg PUBLIC "-//W3C//DTD SVG 1.1//EN" "http://www.w3.org/Graphics/SVG/1.1/DTD/svg11.dtd">
<!-- Creator: CorelDRAW -->
<svg xmlns="http://www.w3.org/2000/svg" xml:space="preserve" width="2048px" height="2048px" style="shape-rendering:geometricPrecision; text-rendering:geometricPrecision; image-rendering:optimizeQuality; fill-rule:evenodd; clip-rule:evenodd"
viewBox="0 0 2048 2048"
 xmlns:xlink="http://www.w3.org/1999/xlink">
 <defs>
  <style type="text/css">
   <![CDATA[
    .str0 {stroke:#373435;stroke-width:2.08347;stroke-linecap:round;stroke-linejoin:round}
    .fil2 {fill:none}
    .fil1 {fill:#6B809B}
    .fil0 {fill:#424242}
   ]]>
  </style>
 </defs>
 <g id="Layer_x0020_1">
  <metadata id="CorelCorpID_0Corel-Layer"/>
  <g id="_231904320">
   <path id="_231905328" class="fil0" d="M811.987 967.717c-49.7445,200.256 -117.06,324.254 -169.7,472.708 -166.218,468.768 929.642,468.768 763.424,0 -52.6394,-148.454 -119.955,-272.452 -169.7,-472.708 -57.463,-231.333 -366.561,-231.333 -424.024,0zm22.754 196.745l1.11732 0.475985c0.316536,0.112205 0.630709,0.229134 0.944883,0.354331 37.5733,15.0225 71.4851,39.3839 95.4509,71.7485 21.9449,29.6362 35.4898,65.791 35.9174,107.453 0.638977,62.1473 -25.0347,138.891 -46.4693,202.96 -14.1177,42.2044 -26.2607,78.4997 -26.3138,95.9576 -0.0602363,19.8461 3.24331,35.863 9.25394,48.2067 5.58662,11.4673 13.6299,19.6512 23.4874,24.6591 10.8732,5.52284 25.0323,5.30433 38.6646,-0.551575 12.4417,-5.34213 24.215,-15.2516 32.8784,-29.7166l0 -62.3965c-24.5587,-12.5847 -42.5091,-41.6032 -42.5091,-61.6678 0,-44.2264 133.674,-44.0941 133.674,0 0,20.0658 -17.9504,49.0855 -42.5103,61.6689l0 62.3953c8.66339,14.465 20.4366,24.3744 32.8784,29.7166 13.6323,5.85591 27.7914,6.07441 38.6646,0.551575 9.85749,-5.00788 17.9008,-13.1917 23.4874,-24.6591 6.01063,-12.3437 9.31418,-28.3607 9.25394,-48.2067 -0.0531496,-17.4579 -12.1961,-53.7532 -26.3138,-95.9576 -21.4347,-64.0689 -47.1083,-140.812 -46.4693,-202.96 0.427559,-41.6622 13.9725,-77.817 35.9174,-107.453 23.9658,-32.3646 57.8776,-56.726 95.4509,-71.7485 0.780709,-0.311811 1.56614,-0.581103 2.35748,-0.809056l0.0507874 -0.0212599c13.4788,-5.62323 27.6461,-7.4693 41.4095,-6.01772 13.5284,1.42677 26.589,6.0189 38.1414,13.3134 9.02127,4.97717 14.2122,15.3756 12.1039,26.0244l-0.0248032 -0.00590552c-2.77205,13.9618 -8.85591,27.124 -17.778,38.2677 -8.73072,10.9051 -20.0421,19.728 -33.4996,25.3441 -13.4776,5.62205 -27.6425,7.46812 -41.4083,6.01772 -13.5272,-1.42559 -26.5902,-6.01772 -38.1414,-13.3122 -2.14252,-1.18347 -4.0689,-2.67284 -5.73308,-4.39607 -5.04685,5.08347 -9.72284,10.4988 -13.9677,16.2307 -16.1398,21.7949 -26.1012,48.3615 -26.4142,78.9473 -0.5563,54.0083 23.726,126.591 43.9985,187.185 15.4335,46.1363 28.7067,85.8107 28.7847,111.351 0.0850394,27.6792 -4.91457,50.8229 -14.0067,69.4926 -10.389,21.3284 -25.9358,36.8457 -45.3437,46.7055 -23.713,12.0473 -52.8993,12.2976 -79.715,0.778347 -13.5886,-5.83583 -26.6339,-14.7473 -38.0103,-26.7095 -11.3764,11.9622 -24.4217,20.8736 -38.0103,26.7095 -26.8158,11.5193 -56.002,11.2689 -79.715,-0.778347 -19.4079,-9.85985 -34.9548,-25.3772 -45.3437,-46.7055 -9.09213,-18.6697 -14.0917,-41.8134 -14.0067,-69.4926 0.0779528,-25.5402 13.3512,-65.2146 28.7847,-111.351 20.2725,-60.5941 44.5548,-133.176 43.9985,-187.185 -0.312992,-30.5859 -10.2744,-57.1524 -26.4142,-78.9473 -4.19646,-5.66457 -8.81339,-11.0197 -13.7929,-16.0536 -1.62402,1.64882 -3.49016,3.07677 -5.56063,4.2189 -11.5512,7.29449 -24.6142,11.8866 -38.1425,13.3122 -13.7646,1.45039 -27.9295,-0.39567 -41.4071,-6.01772 -13.4575,-5.61615 -24.7689,-14.439 -33.4996,-25.3441 -8.92324,-11.1437 -15.0059,-24.3059 -17.778,-38.2677l-0.0248032 0.00590552c-2.10827,-10.6488 3.08268,-21.0473 12.1039,-26.0244 11.5512,-7.29449 24.613,-11.8866 38.1414,-13.3134 13.7634,-1.45158 27.9307,0.394488 41.4083,6.01772z"/>
   <path id="_231905736" class="fil1 str0" d="M855.726 1230c-9.6319,-11.3433 -22.0843,-20.6445 -36.9638,-26.8524 -14.7803,-6.16536 -30.254,-8.44489 -45.3579,-7.30394 9.63544,11.3433 22.0843,20.648 36.9614,26.8524 14.7827,6.16654 30.2528,8.44489 45.3603,7.30394z"/>
   <path id="_231905712" class="fil1 str0" d="M1237.98 1222.7c14.8772,-6.20434 27.326,-15.5091 36.9603,-26.8524 -15.1039,-1.14095 -30.5764,1.13858 -45.3567,7.30394 -14.8807,6.20788 -27.3319,15.5091 -36.9638,26.8524 15.1075,1.14095 30.5776,-1.1374 45.3603,-7.30394z"/>
   <g>
    <path id="_231904440" class="fil0" d="M821.965 939.27c-30.2457,-153.202 -201.083,-228.214 -266.614,-341.64 -65.5312,-113.426 -18.9484,-336.643 38.3209,-341.54 11.0906,-0.948426 25.0784,5.7378 40.8189,17.811 36.3567,75.867 73.9831,159.8 107.636,242.099 63.7654,155.943 113.159,305.62 112.266,382.309 -0.0354331,4.46103 3.55276,8.10591 8.01379,8.14134 4.46103,0.034252 8.10591,-3.55394 8.14134,-8.01379 0.920079,-79.0123 -49.0099,-230.869 -113.471,-388.518 -28.5957,-69.9308 -60.0697,-141.072 -91.2367,-207.528 61.9134,63.6437 137.017,177.835 175.35,245.392 55.9524,98.6068 71.6906,190.175 69.5434,298.881l2.23347 36.4748 -67.7859 64.6182 -23.2169 -8.48623z"/>
    <path id="_231904848" class="fil0" d="M1226.03 939.27c30.2457,-153.202 201.083,-228.214 266.614,-341.64 65.5312,-113.426 18.9484,-336.643 -38.3209,-341.54 -11.0906,-0.948426 -25.0784,5.7378 -40.8189,17.811 -36.3567,75.867 -73.9831,159.8 -107.636,242.099 -63.7654,155.943 -113.159,305.62 -112.266,382.309 0.0354331,4.46103 -3.55276,8.10591 -8.01379,8.14134 -4.46103,0.034252 -8.10591,-3.55394 -8.14134,-8.01379 -0.920079,-79.0123 49.0099,-230.869 113.471,-388.518 28.5945,-69.9308 60.0697,-141.072 91.2367,-207.528 -61.9134,63.6437 -137.017,177.835 -175.35,245.392 -55.9524,98.6068 -71.6906,190.175 -69.5434,298.881l-2.23347 36.4748 67.7859 64.6182 23.2169 -8.48623z"/>
   </g>
  </g>
 </g>
 <rect class="fil2" width="2048" height="2048"/>
</svg>
